<svg aria-hidden="true" style="position: absolute; width: 0; height: 0; overflow: hidden;" version="1.1" xmlns="http://www.w3.org/2000/svg" xmlns:xlink="http://www.w3.org/1999/xlink">
<defs>
<symbol id="icon-link" viewBox="0 0 32 32">
<path stroke-linejoin="round" stroke-linecap="round" stroke-miterlimit="4" stroke-width="1.7778" d="M17.41 12.075c0.77 0.368 1.441 0.915 1.956 1.596s0.859 1.475 1.003 2.316 0.084 1.705-0.174 2.518c-0.259 0.813-0.709 1.553-1.313 2.156l-5.333 5.333c-1 1-2.357 1.562-3.771 1.562s-2.771-0.562-3.771-1.562c-1-1-1.562-2.357-1.562-3.771s0.562-2.771 1.562-3.771l2.082-2.082M23.911 15.632l2.082-2.082c1-1 1.562-2.357 1.562-3.771s-0.562-2.771-1.562-3.771c-1-1-2.357-1.562-3.771-1.562s-2.771 0.562-3.771 1.562l-5.333 5.333c-0.604 0.603-1.054 1.343-1.313 2.156s-0.318 1.677-0.174 2.518 0.488 1.635 1.003 2.316c0.515 0.681 1.185 1.228 1.956 1.596"></path>
</symbol>
<symbol id="icon-more" viewBox="0 0 32 32">
<path d="M25.568 2.886c-0.073-0.362-0.27-0.687-0.555-0.92s-0.643-0.361-1.013-0.361c-0.369 0-0.727 0.128-1.013 0.361s-0.482 0.559-0.555 0.92l-0.384 1.907c-0.062 0.31-0.214 0.594-0.437 0.818s-0.508 0.376-0.817 0.438l-1.907 0.381c-0.363 0.072-0.691 0.268-0.926 0.554s-0.364 0.645-0.364 1.016c0 0.37 0.129 0.729 0.364 1.016s0.562 0.482 0.926 0.554l1.907 0.381c0.31 0.062 0.595 0.214 0.818 0.438s0.376 0.508 0.438 0.818l0.381 1.907c0.072 0.363 0.268 0.691 0.554 0.926s0.645 0.364 1.016 0.364c0.37 0 0.729-0.129 1.016-0.364s0.482-0.562 0.554-0.926l0.381-1.907c0.062-0.31 0.214-0.595 0.438-0.818s0.508-0.376 0.818-0.438l1.907-0.381c0.363-0.072 0.691-0.268 0.926-0.554s0.364-0.645 0.364-1.016c0-0.37-0.129-0.729-0.364-1.016s-0.562-0.482-0.926-0.554l-1.907-0.381c-0.31-0.062-0.595-0.214-0.818-0.438s-0.376-0.508-0.438-0.818l-0.381-1.907h-0.002zM11.118 9.094c-0.106-0.319-0.31-0.596-0.582-0.793s-0.6-0.303-0.936-0.303c-0.336 0-0.664 0.106-0.936 0.303s-0.476 0.474-0.582 0.793l-1.093 3.282c-0.079 0.236-0.211 0.45-0.387 0.626s-0.39 0.308-0.626 0.387l-3.282 1.093c-0.319 0.106-0.596 0.31-0.793 0.582s-0.302 0.6-0.302 0.936c0 0.336 0.106 0.664 0.302 0.936s0.474 0.476 0.793 0.582l3.282 1.094c0.236 0.078 0.45 0.211 0.626 0.386s0.308 0.39 0.387 0.625l1.093 3.282c0.106 0.319 0.31 0.596 0.582 0.793s0.6 0.302 0.936 0.302c0.336 0 0.664-0.106 0.936-0.302s0.476-0.474 0.582-0.793l1.093-3.282c0.079-0.236 0.211-0.45 0.387-0.626s0.39-0.308 0.626-0.387l3.282-1.093c0.319-0.106 0.596-0.31 0.793-0.582s0.302-0.6 0.302-0.936c0-0.336-0.106-0.664-0.302-0.936s-0.474-0.476-0.793-0.582l-3.282-1.093c-0.236-0.079-0.45-0.211-0.626-0.387s-0.308-0.39-0.387-0.626l-1.091-3.282h-0.002zM22.318 21.894c-0.106-0.319-0.31-0.596-0.582-0.793s-0.6-0.302-0.936-0.302c-0.336 0-0.664 0.106-0.936 0.302s-0.476 0.474-0.582 0.793l-0.294 0.882c-0.078 0.236-0.211 0.45-0.386 0.626s-0.39 0.308-0.625 0.387l-0.882 0.293c-0.319 0.106-0.596 0.31-0.793 0.582s-0.303 0.6-0.303 0.936c0 0.336 0.106 0.664 0.303 0.936s0.474 0.476 0.793 0.582l0.882 0.293c0.236 0.078 0.45 0.211 0.626 0.387s0.308 0.39 0.387 0.626l0.293 0.882c0.106 0.319 0.31 0.596 0.582 0.793s0.6 0.302 0.936 0.302c0.336 0 0.664-0.106 0.936-0.302s0.476-0.474 0.582-0.793l0.294-0.882c0.078-0.236 0.211-0.45 0.386-0.626s0.39-0.308 0.625-0.387l0.882-0.293c0.319-0.106 0.596-0.31 0.793-0.582s0.302-0.6 0.302-0.936c0-0.336-0.106-0.664-0.302-0.936s-0.474-0.476-0.793-0.582l-0.882-0.294c-0.236-0.078-0.45-0.211-0.626-0.386s-0.308-0.39-0.387-0.625l-0.293-0.882z"></path>
</symbol>
<symbol id="icon-date" viewBox="0 0 33 32">
<path d="M9.257 3.153c-0.254 0.068-0.462 0.231-0.587 0.448l-0.002 0.005c-0.097 0.166-0.113 0.318-0.138 1.323l-0.028 1.136-0.831 0.033c-0.635 0.026-0.921 0.063-1.218 0.156-1.345 0.45-2.369 1.528-2.734 2.877l-0.007 0.029c-0.108 0.43-0.111 0.613-0.111 8.423 0 7.812 0.002 7.995 0.111 8.425 0.144 0.569 0.374 1.030 0.751 1.513 0.55 0.696 1.307 1.206 2.178 1.438l0.029 0.007c0.431 0.108 0.61 0.111 9.887 0.11 10.606-0.001 9.842 0.030 10.75-0.425 0.427-0.214 0.615-0.352 1.002-0.736 0.71-0.704 1.073-1.393 1.214-2.308 0.039-0.257 0.053-2.922 0.042-8.272-0.018-8.581 0.004-7.951-0.316-8.75-0.331-0.825-1.119-1.658-1.966-2.078-0.635-0.316-1.097-0.414-1.951-0.415l-0.674-0.001-0.018-1.121c-0.017-1.061-0.025-1.135-0.149-1.35-0.438-0.764-1.878-0.646-2.106 0.174-0.034 0.126-0.062 0.671-0.062 1.259v1.039h-11.451l-0.026-1.094c-0.016-0.674-0.052-1.157-0.094-1.259-0.095-0.219-0.256-0.394-0.459-0.504l-0.005-0.003c-0.188-0.097-0.777-0.143-1.029-0.079zM25.985 8.476c0.535 0.148 1.090 0.757 1.204 1.319 0.075 0.375 0.081 1.558 0.007 1.558-0.030 0-0.174-0.047-0.319-0.103-0.604-0.238-0.606-0.238-10.539-0.219l-9.498 0.017-0.431 0.153c-0.105 0.042-0.259 0.094-0.415 0.141l-0.047 0.012c-0.016 0-0.022-0.38-0.012-0.844 0.016-0.757 0.031-0.871 0.148-1.094 0.223-0.43 0.574-0.743 1.033-0.923 0.222-0.086 18.56-0.102 18.869-0.016zM26.079 13.45c0.545 0.208 0.991 0.719 1.108 1.271 0.086 0.406 0.089 10.223 0.002 10.652-0.114 0.567-0.673 1.177-1.212 1.322-0.14 0.037-3.296 0.052-9.508 0.042l-9.297-0.015-0.258-0.132c-0.352-0.198-0.635-0.483-0.824-0.826l-0.005-0.011-0.13-0.249v-10.912l0.13-0.249c0.223-0.43 0.574-0.743 1.033-0.923 0.126-0.049 2.469-0.066 9.429-0.070 8.894-0.004 9.274 0 9.534 0.098zM15.974 16.055c-0.299 0.137-0.447 0.335-0.524 0.709-0.121 0.58 0.059 1.122 0.443 1.338 0.297 0.167 0.748 0.208 1.118 0.1 0.502-0.145 0.713-0.481 0.713-1.132 0-0.754-0.37-1.12-1.13-1.118-0.017-0.001-0.038-0.001-0.058-0.001-0.202 0-0.394 0.038-0.571 0.108l0.011-0.004zM18.901 16.066c-0.33 0.164-0.469 0.416-0.501 0.908-0.046 0.698 0.166 1.072 0.694 1.226 0.586 0.17 1.216-0.011 1.442-0.415 0.226-0.405 0.224-1.056-0.007-1.403-0.276-0.416-1.103-0.576-1.628-0.316zM21.945 16.017c-0.24 0.081-0.491 0.374-0.57 0.667-0.084 0.309-0.037 0.798 0.102 1.071 0.217 0.425 0.863 0.62 1.466 0.446 0.516-0.15 0.741-0.546 0.695-1.225-0.048-0.71-0.335-0.981-1.065-1.006-0.246-0.009-0.529 0.012-0.629 0.047zM10.238 18.937c-0.505 0.164-0.721 0.496-0.721 1.108 0 0.5 0.14 0.825 0.432 1.007 0.186 0.116 0.283 0.133 0.713 0.133 0.423 0 0.53-0.018 0.703-0.126 0.294-0.183 0.443-0.523 0.443-1.009 0-0.75-0.33-1.105-1.056-1.142-0.042-0.003-0.092-0.005-0.142-0.005-0.131 0-0.26 0.013-0.384 0.037l0.013-0.002zM13.099 18.966c-0.428 0.158-0.638 0.533-0.636 1.138 0.002 0.695 0.42 1.108 1.119 1.108 0.853-0.001 1.26-0.449 1.191-1.312-0.032-0.402-0.181-0.678-0.458-0.849-0.252-0.156-0.902-0.202-1.216-0.085zM16.228 18.922c-0.598 0.196-0.802 0.481-0.801 1.127 0.001 0.737 0.31 1.094 0.997 1.15 0.619 0.049 1.046-0.151 1.222-0.575 0.095-0.224 0.101-0.789 0.012-1.083-0.078-0.261-0.352-0.517-0.64-0.596-0.213-0.059-0.64-0.073-0.79-0.023zM19.033 18.964c-0.446 0.166-0.645 0.505-0.645 1.092 0.001 0.423 0.082 0.666 0.29 0.862 0.222 0.208 0.469 0.295 0.839 0.295 0.635-0.001 0.977-0.217 1.12-0.706 0.176-0.606-0.018-1.253-0.441-1.471-0.276-0.142-0.876-0.178-1.164-0.071zM22.025 18.954c-0.312 0.103-0.55 0.352-0.636 0.664l-0.002 0.007c-0.133 0.528-0.046 1.008 0.235 1.289 0.417 0.417 1.398 0.396 1.785-0.039 0.358-0.405 0.314-1.381-0.079-1.73-0.262-0.233-0.828-0.315-1.303-0.19zM10.468 21.865c-0.644 0.053-0.95 0.423-0.951 1.147-0.001 0.822 0.338 1.156 1.169 1.148 0.789-0.006 1.121-0.346 1.121-1.148 0-0.551-0.185-0.912-0.537-1.051-0.161-0.064-0.578-0.113-0.802-0.096zM13.337 21.882c-0.336 0.052-0.576 0.197-0.726 0.438-0.101 0.161-0.122 0.276-0.122 0.692 0 0.619 0.123 0.865 0.521 1.040 0.351 0.156 0.906 0.153 1.236-0.006 0.37-0.18 0.514-0.469 0.514-1.034 0-0.368-0.022-0.482-0.134-0.678-0.214-0.374-0.697-0.543-1.289-0.452zM16.306 21.882c-0.34 0.043-0.466 0.107-0.65 0.326-0.257 0.304-0.319 1.051-0.119 1.441 0.183 0.359 0.492 0.508 1.061 0.51 0.763 0.002 1.125-0.366 1.125-1.147 0-0.47-0.155-0.83-0.425-0.983-0.229-0.132-0.639-0.192-0.992-0.146zM19.259 21.884c-0.596 0.087-0.871 0.446-0.871 1.127 0 0.689 0.281 1.045 0.9 1.143 0.33 0.052 0.793-0.026 0.983-0.165 0.223-0.173 0.375-0.427 0.414-0.717l0.001-0.006c0.074-0.538-0.078-0.983-0.418-1.237-0.175-0.129-0.652-0.198-1.008-0.146z"></path>
</symbol>
<symbol id="icon-dot" viewBox="0 0 32 32">
<path d="M10.667 2.667h10.667c4.418 0 8 3.582 8 8v10.667c0 4.418-3.582 8-8 8h-10.667c-4.418 0-8-3.582-8-8v-10.667c0-4.418 3.582-8 8-8z"></path>
</symbol>
<symbol id="icon-email" viewBox="0 0 32 32">
<path d="M4.639 6.667c-0.825 0-1.616 0.328-2.2 0.911s-0.911 1.375-0.911 2.2v1.806l13.13 6.566c0.27 0.135 0.568 0.205 0.87 0.205s0.6-0.070 0.87-0.205l13.13-6.564v-1.808c0-0.825-0.328-1.616-0.911-2.2s-1.375-0.911-2.2-0.911h-21.778z"></path>
<path d="M29.528 14.194l-12.087 6.043c-0.594 0.297-1.249 0.452-1.913 0.452s-1.319-0.155-1.913-0.452l-12.087-6.043v8.028c0 0.825 0.328 1.616 0.911 2.2s1.375 0.911 2.2 0.911h21.778c0.825 0 1.616-0.328 2.2-0.911s0.911-1.375 0.911-2.2v-8.028z"></path>
</symbol>
<symbol id="icon-map" viewBox="0 0 32 32">
<path d="M15.416 31.87l-0.011-0.006-0.034-0.015-0.117-0.055c-0.628-0.312-1.241-0.654-1.837-1.024-1.538-0.954-2.972-2.068-4.278-3.322-3.119-3.004-6.315-7.702-6.315-14.274 0-1.73 0.341-3.443 1.003-5.042s1.633-3.051 2.856-4.274c1.223-1.223 2.676-2.194 4.274-2.856s3.312-1.003 5.042-1.003 3.443 0.341 5.042 1.003c1.598 0.662 3.051 1.633 4.274 2.856s2.194 2.676 2.856 4.274c0.662 1.598 1.003 3.312 1.003 5.042 0 6.574-3.196 11.27-6.313 14.274-1.56 1.504-3.113 2.599-4.28 3.322-0.585 0.363-1.075 0.634-1.425 0.815-0.174 0.093-0.35 0.18-0.529 0.264l-0.034 0.015-0.011 0.006-0.004 0.002c-0.373 0.162-0.58 0.124-0.58 0.124s-0.207 0.038-0.578-0.124l-0.006-0.002zM16 17.41c1.123 0 2.2-0.446 2.994-1.24s1.24-1.871 1.24-2.994-0.446-2.2-1.24-2.994c-0.794-0.794-1.871-1.24-2.994-1.24s-2.2 0.446-2.994 1.24c-0.794 0.794-1.24 1.871-1.24 2.994s0.446 2.2 1.24 2.994c0.794 0.794 1.871 1.24 2.994 1.24z"></path>
</symbol>
<symbol id="icon-figma" viewBox="0 0 32 32">
<path d="M20.565 12.422h-5.438v-10.644h5.438c2.935 0 5.322 2.387 5.322 5.322s-2.387 5.323-5.322 5.323zM16.871 10.679h3.694c1.973 0 3.578-1.606 3.578-3.578s-1.606-3.578-3.578-3.578h-3.694v7.156zM16.871 12.422h-5.436c-2.934 0-5.321-2.387-5.321-5.322s2.387-5.323 5.321-5.323h5.438v10.644h-0.001zM11.435 3.521c-1.973 0-3.578 1.606-3.578 3.578s1.605 3.579 3.578 3.579h3.694v-7.157h-3.694zM16.871 21.322h-5.436c-2.934 0-5.321-2.387-5.321-5.322s2.387-5.322 5.321-5.322h5.438v10.643h-0.001zM11.435 12.422c-1.973 0-3.578 1.606-3.578 3.578s1.606 3.578 3.578 3.578h3.694v-7.156h-3.694zM11.463 30.222c-2.95 0-5.351-2.387-5.351-5.322s2.387-5.321 5.321-5.321h5.438v5.263c0 2.966-2.426 5.38-5.408 5.38zM11.435 21.322c-0.949 0.001-1.858 0.379-2.529 1.049s-1.048 1.58-1.049 2.529c0 1.973 1.618 3.578 3.608 3.578 2.021 0 3.666-1.631 3.666-3.636v-3.52h-3.695zM20.565 21.322h-0.116c-2.935 0-5.322-2.387-5.322-5.322s2.387-5.322 5.322-5.322h0.116c2.935 0 5.322 2.387 5.322 5.322s-2.387 5.322-5.322 5.322zM20.45 12.422c-1.973 0-3.578 1.606-3.578 3.578s1.606 3.578 3.578 3.578h0.116c1.973 0 3.578-1.606 3.578-3.578s-1.606-3.578-3.578-3.578h-0.116z"></path>
</symbol>
<symbol id="icon-github" viewBox="0 0 32 32">
<path d="M16 2.13c-7.858 0-14.222 6.368-14.222 14.222 0 6.285 4.075 11.615 9.724 13.493 0.711 0.134 0.972-0.306 0.972-0.684 0-0.338-0.012-1.233-0.018-2.418-3.956 0.858-4.79-1.908-4.79-1.908-0.647-1.642-1.582-2.080-1.582-2.080-1.288-0.882 0.1-0.864 0.1-0.864 1.428 0.1 2.178 1.465 2.178 1.465 1.268 2.175 3.329 1.547 4.142 1.183 0.128-0.92 0.494-1.547 0.901-1.902-3.159-0.356-6.478-1.579-6.478-7.028 0-1.553 0.551-2.821 1.464-3.816-0.16-0.359-0.64-1.805 0.124-3.764 0 0 1.191-0.382 3.911 1.458 1.138-0.316 2.347-0.473 3.556-0.48 1.209 0.007 2.418 0.164 3.556 0.48 2.702-1.839 3.893-1.458 3.893-1.458 0.764 1.959 0.284 3.405 0.142 3.764 0.907 0.996 1.458 2.264 1.458 3.816 0 5.464-3.324 6.667-6.489 7.016 0.498 0.427 0.96 1.299 0.96 2.631 0 1.903-0.018 3.432-0.018 3.895 0 0.373 0.249 0.818 0.978 0.676 5.69-1.866 9.761-7.199 9.761-13.474 0-7.854-6.368-14.222-14.222-14.222z"></path>
</symbol>
<symbol id="icon-linkedin" viewBox="0 0 32 32">
<path d="M26.011 26.017h-4.212v-6.6c0-1.574-0.032-3.599-2.195-3.599-2.196 0-2.532 1.713-2.532 3.483v6.716h-4.212v-13.573h4.046v1.85h0.055c0.565-1.067 1.94-2.193 3.994-2.193 4.268 0 5.057 2.809 5.057 6.465v7.45h-0.001zM8.103 10.587c-1.356 0-2.445-1.098-2.445-2.447 0-1.349 1.090-2.445 2.445-2.445 1.351 0 2.446 1.096 2.446 2.445 0 1.35-1.096 2.447-2.446 2.447zM10.215 26.017h-4.224v-13.573h4.224v13.573zM28.119 1.778h-24.242c-1.16 0-2.099 0.917-2.099 2.049v24.346c0 1.133 0.939 2.049 2.099 2.049h24.238c1.159 0 2.107-0.916 2.107-2.049v-24.346c0-1.132-0.948-2.049-2.107-2.049h0.004z"></path>
</symbol>
<symbol id="icon-planet" viewBox="0 0 32 32">
<path d="M14.586 1.126c-3.861 0.282-7.281 1.974-9.785 4.558l-0.004 0.004c-1.082 1.107-1.991 2.39-2.679 3.8l-0.038 0.086c-1.060 2.168-1.544 4.242-1.546 6.617-0.001 0.056-0.001 0.122-0.001 0.189 0 0.922 0.091 1.824 0.263 2.695l-0.014-0.088c0.072 0.395 0.142 0.808 0.153 0.918 0.015 0.128 0.049 0.246 0.099 0.354l-0.003-0.007c0.040 0.082 0.128 0.328 0.193 0.548 1.094 3.373 3.233 6.152 6.031 8.027l0.055 0.035c1.955 1.304 4.301 2.181 6.83 2.442l0.066 0.006c0.821 0.083 2.906 0.039 3.634-0.079 2.751-0.444 5.241-1.525 7.281-3.157 0.788-0.663 1.498-1.358 2.151-2.104l0.019-0.022c0.877-1.038 1.892-2.71 2.364-3.893 0.341-0.854 0.7-1.927 0.742-2.216 0.024-0.161 0.058-0.342 0.077-0.399 0.092-0.298 0.253-1.49 0.31-2.304 0.020-0.287 0.031-0.622 0.031-0.959 0-1.681-0.28-3.296-0.795-4.802l0.031 0.104c-1.448-4.299-4.652-7.667-8.737-9.305l-0.102-0.036c-1.336-0.552-2.885-0.915-4.505-1.011l-0.039-0.002c-0.307-0.029-0.664-0.045-1.024-0.045-0.372 0-0.739 0.017-1.102 0.051l0.046-0.004zM16.559 2.997c0.42 0.138 0.806 0.36 1.273 0.737 1.611 1.297 3.022 4.249 3.631 7.599 0.049 0.264 0.099 0.518 0.113 0.563 0.019 0.067-0.106 0.127-0.602 0.281-2.963 0.924-6.425 1.034-9.487 0.302-0.822-0.196-1.727-0.47-1.727-0.522 0.001-0.295 0.48-2.322 0.739-3.132 0.419-1.301 1.041-2.638 1.665-3.574 0.454-0.68 1.35-1.607 1.823-1.884 0.889-0.525 1.734-0.646 2.573-0.371zM10.685 4.301c-0.729 1.081-1.462 2.681-1.93 4.206-0.205 0.668-0.511 1.903-0.6 2.414-0.036 0.213-0.078 0.387-0.093 0.387s-0.349-0.168-0.742-0.374c-0.943-0.499-1.746-1.008-2.506-1.572l0.051 0.036-0.494-0.37 0.353-0.499c1.266-1.786 2.914-3.218 4.832-4.199l0.075-0.035c0.52-0.264 1.357-0.636 1.497-0.665 0.004-0.001-0.195 0.302-0.445 0.672zM21.387 4.143c2.166 1.034 3.89 2.482 5.242 4.401 0.138 0.196 0.264 0.391 0.281 0.433 0.070 0.181-2.485 1.841-3.459 2.248l-0.191 0.081-0.060-0.306c-0.522-2.675-1.416-5.024-2.568-6.742-0.119-0.188-0.239-0.35-0.37-0.503l0.005 0.006c-0.031-0.018-0.056-0.056-0.056-0.083 0-0.068 0.327 0.061 1.174 0.466zM4.587 11.356c0.811 0.547 1.629 1.016 2.493 1.429l0.707 0.337-0.001 0.199c0 0.11-0.025 0.487-0.054 0.839-0.081 0.954-0.067 3.378 0.025 4.454 0.068 0.797 0.129 1.279 0.334 2.63 0.031 0.202 0.029 0.203-0.122 0.166-0.953-0.234-3.108-1.075-4.395-1.717-1.078-0.537-0.977-0.402-1.152-1.533-0.138-0.889-0.139-2.986-0.003-3.865 0.181-1.163 0.547-2.45 0.961-3.378l0.139-0.312 0.227 0.17c0.125 0.095 0.504 0.356 0.842 0.583zM28.289 11.755c0.74 2.048 0.943 4.486 0.562 6.769-0.057 0.348-0.104 0.641-0.104 0.654 0 0.036-1.536 0.793-2.189 1.075-1.013 0.441-3.278 1.231-3.342 1.167-0-0.005-0-0.011-0-0.018 0-0.094 0.014-0.184 0.041-0.268l-0.002 0.006c0.1-0.444 0.264-1.761 0.345-2.767 0.097-1.222 0.099-3.034 0.001-4.266-0.030-0.287-0.051-0.627-0.056-0.971l-0-0.009c0.011-0.011 0.292-0.145 0.623-0.298 1.303-0.632 2.418-1.312 3.461-2.085l-0.058 0.041 0.241-0.182 0.15 0.333c0.083 0.184 0.23 0.552 0.326 0.818zM11.368 14.262c1.579 0.353 2.976 0.483 4.792 0.442 1.831-0.040 3.278-0.252 4.907-0.719l0.719-0.207 0.035 0.271c0.018 0.149 0.051 0.799 0.074 1.444 0.008 0.237 0.012 0.517 0.012 0.797 0 1.711-0.16 3.384-0.467 5.006l0.026-0.167c-0.072 0.391-0.132 0.725-0.132 0.744-0.001 0.058-1.567 0.321-2.641 0.444-1.301 0.149-3.921 0.189-5.201 0.082-1.137-0.099-2.131-0.232-3.11-0.406l0.207 0.031c0.258 0.037 0.074 0.001-0.111-0.035l-0.434-0.070c-0.043-0.001-0.317-1.536-0.415-2.321-0.163-1.309-0.206-2.3-0.175-3.962 0.018-0.9 0.047-1.688 0.065-1.749 0.033-0.111 0.038-0.111 0.63 0.061 0.327 0.096 0.875 0.237 1.217 0.313zM4.454 22.029c0.973 0.409 2.582 0.963 3.494 1.201 0.307 0.081 0.586 0.173 0.618 0.206 0.032 0.032 0.114 0.25 0.181 0.484 0.433 1.517 1.354 3.477 2.12 4.519 0.129 0.175 0.224 0.33 0.211 0.342-0.026 0.026-1.034-0.397-1.486-0.625-0.98-0.524-1.824-1.096-2.603-1.744l0.025 0.020c-1.377-1.184-2.506-2.613-3.327-4.225l-0.036-0.078c-0.257-0.512-0.271-0.555-0.171-0.511 0.038 0.017 0.474 0.202 0.974 0.41zM27.701 22.094c-1.326 2.656-3.414 4.765-6.009 6.072-0.536 0.27-1.37 0.634-1.453 0.634-0.014 0 0.064-0.125 0.174-0.277 0.849-1.178 1.647-2.858 2.161-4.543l0.177-0.58 0.985-0.282c1.362-0.391 2.866-0.934 3.891-1.405 0.079-0.041 0.171-0.079 0.268-0.108l0.012-0.003c0.022-0.001-0.070 0.221-0.206 0.493zM20.557 24.459c-0.107 0.289-0.369 0.888-0.582 1.327-0.986 2.040-2.289 3.393-3.587 3.73-1.785 0.462-3.622-0.874-4.975-3.623-0.353-0.719-0.872-1.998-0.829-2.042 0.013-0.011 0.378 0.028 0.813 0.089 2.957 0.41 5.597 0.412 8.497 0 0.426-0.060 0.786-0.121 0.8-0.136 0.093-0.092 0.031 0.202-0.136 0.655z"></path>
</symbol>
<symbol id="icon-logo" viewBox="0 0 46 32">
<path d="M0 0.744c0 0.372 2.679 7.591 6.028 16l6.028 15.33 2.977-0.223c2.977-0.223 2.977-0.223 5.358-5.953 1.265-3.2 2.53-5.805 2.753-5.805s1.488 2.679 2.902 6.028l2.456 5.953 5.953-0.447 5.805-14.809c3.274-8.112 5.879-15.256 5.879-15.777 0-0.744-0.967-1.042-3.2-1.042h-3.2l-3.572 9.823c-1.935 5.433-3.944 10.865-4.465 12.056l-0.893 2.233-1.712-4.688c-0.893-2.605-1.563-5.209-1.34-5.954 0.223-0.67 1.414-3.944 2.679-7.367l2.233-6.102h-6.4l-1.34 4.465c-0.744 2.456-1.563 4.465-1.86 4.465s-1.116-2.009-1.86-4.465l-1.34-4.465h-6.4l1.935 4.986c3.572 9.526 3.572 9.377 1.712 14.288-0.893 2.53-1.712 4.54-1.86 4.54-0.074 0-2.084-5.358-4.465-11.907l-4.242-11.907h-3.274c-1.786 0-3.274 0.298-3.274 0.744z"></path>
</symbol>
<symbol id="icon-logo-mimino" viewBox="0 0 32 32">
<path d="M-32.046 0.136c1.333 0 2.464 0.502 3.391 1.505 0.942 1.004 1.413 2.215 1.413 3.636v28.068h-3.217v-28.369c0-0.479-0.152-0.88-0.457-1.204s-0.681-0.486-1.131-0.486-0.833 0.162-1.152 0.486c-0.305 0.324-0.457 0.726-0.457 1.204v28.369h-3.217v-28.369c0-0.479-0.152-0.88-0.457-1.204s-0.681-0.486-1.131-0.486c-0.449 0-0.833 0.162-1.152 0.486-0.305 0.324-0.457 0.726-0.457 1.204v28.369h-3.217v-28.068c0-1.42 0.471-2.632 1.413-3.636s2.080-1.505 3.412-1.505c1.187 0 2.254 0.448 3.196 1.343 0.942-0.895 2.014-1.343 3.217-1.343zM-11.236 33.346v-33.21h3.217v33.21h-3.217zM19.228 0.136c1.333 0 2.464 0.502 3.391 1.505 0.942 1.004 1.413 2.215 1.413 3.636v28.068h-3.217v-28.369c0-0.479-0.152-0.88-0.457-1.204s-0.681-0.486-1.131-0.486c-0.45 0-0.833 0.162-1.152 0.486-0.305 0.324-0.457 0.726-0.457 1.204v28.369h-3.217v-28.369c0-0.479-0.152-0.88-0.457-1.204s-0.681-0.486-1.131-0.486-0.833 0.162-1.152 0.486c-0.305 0.324-0.457 0.726-0.457 1.204v28.369h-3.217v-28.068c0-1.42 0.471-2.632 1.413-3.636s2.080-1.505 3.412-1.505c1.187 0 2.254 0.448 3.196 1.343 0.942-0.895 2.014-1.343 3.217-1.343zM40.040 33.346v-33.21h3.217v33.21h-3.217zM65.678 15.189v-15.053h3.217v33.21h-3.217v-15.030h-3.196v15.030h-3.217v-33.21h3.217v15.053h3.196zM86.338 1.641c0.942-1.004 2.080-1.505 3.414-1.505s2.464 0.502 3.391 1.505c0.942 1.004 1.412 2.215 1.412 3.636v22.95c0 1.42-0.471 2.632-1.412 3.636-0.928 0.988-2.059 1.482-3.391 1.482s-2.47-0.494-3.414-1.482c-0.942-1.004-1.412-2.215-1.412-3.636v-22.95c0-1.42 0.471-2.632 1.412-3.636zM91.336 28.506v-23.529c0-0.479-0.151-0.88-0.457-1.204-0.303-0.324-0.681-0.486-1.129-0.486-0.45 0-0.834 0.162-1.152 0.486-0.305 0.324-0.457 0.726-0.457 1.204v23.529c0 0.479 0.153 0.888 0.457 1.227 0.318 0.324 0.702 0.486 1.152 0.486 0.448 0 0.826-0.162 1.129-0.486 0.305-0.34 0.457-0.749 0.457-1.227z"></path>
</symbol>
</defs>
</svg>
