<svg aria-hidden="true" style="position: absolute; width: 0; height: 0; overflow: hidden;" version="1.1" xmlns="http://www.w3.org/2000/svg" xmlns:xlink="http://www.w3.org/1999/xlink">
<defs>
<symbol id="icon-link" viewBox="0 0 32 32">
<path stroke-linejoin="round" stroke-linecap="round" stroke-miterlimit="4" stroke-width="1.7778" d="M17.41 12.075c0.77 0.368 1.441 0.915 1.956 1.596s0.859 1.475 1.003 2.316 0.084 1.705-0.174 2.518c-0.259 0.813-0.709 1.553-1.313 2.156l-5.333 5.333c-1 1-2.357 1.562-3.771 1.562s-2.771-0.562-3.771-1.562c-1-1-1.562-2.357-1.562-3.771s0.562-2.771 1.562-3.771l2.082-2.082M23.911 15.632l2.082-2.082c1-1 1.562-2.357 1.562-3.771s-0.562-2.771-1.562-3.771c-1-1-2.357-1.562-3.771-1.562s-2.771 0.562-3.771 1.562l-5.333 5.333c-0.604 0.603-1.054 1.343-1.313 2.156s-0.318 1.677-0.174 2.518 0.488 1.635 1.003 2.316c0.515 0.681 1.185 1.228 1.956 1.596"></path>
</symbol>
<symbol id="icon-more" viewBox="0 0 32 32">
<path d="M25.568 2.886c-0.073-0.362-0.27-0.687-0.555-0.92s-0.643-0.361-1.013-0.361c-0.369 0-0.727 0.128-1.013 0.361s-0.482 0.559-0.555 0.92l-0.384 1.907c-0.062 0.31-0.214 0.594-0.437 0.818s-0.508 0.376-0.817 0.438l-1.907 0.381c-0.363 0.072-0.691 0.268-0.926 0.554s-0.364 0.645-0.364 1.016c0 0.37 0.129 0.729 0.364 1.016s0.562 0.482 0.926 0.554l1.907 0.381c0.31 0.062 0.595 0.214 0.818 0.438s0.376 0.508 0.438 0.818l0.381 1.907c0.072 0.363 0.268 0.691 0.554 0.926s0.645 0.364 1.016 0.364c0.37 0 0.729-0.129 1.016-0.364s0.482-0.562 0.554-0.926l0.381-1.907c0.062-0.31 0.214-0.595 0.438-0.818s0.508-0.376 0.818-0.438l1.907-0.381c0.363-0.072 0.691-0.268 0.926-0.554s0.364-0.645 0.364-1.016c0-0.37-0.129-0.729-0.364-1.016s-0.562-0.482-0.926-0.554l-1.907-0.381c-0.31-0.062-0.595-0.214-0.818-0.438s-0.376-0.508-0.438-0.818l-0.381-1.907h-0.002zM11.118 9.094c-0.106-0.319-0.31-0.596-0.582-0.793s-0.6-0.303-0.936-0.303c-0.336 0-0.664 0.106-0.936 0.303s-0.476 0.474-0.582 0.793l-1.093 3.282c-0.079 0.236-0.211 0.45-0.387 0.626s-0.39 0.308-0.626 0.387l-3.282 1.093c-0.319 0.106-0.596 0.31-0.793 0.582s-0.302 0.6-0.302 0.936c0 0.336 0.106 0.664 0.302 0.936s0.474 0.476 0.793 0.582l3.282 1.094c0.236 0.078 0.45 0.211 0.626 0.386s0.308 0.39 0.387 0.625l1.093 3.282c0.106 0.319 0.31 0.596 0.582 0.793s0.6 0.302 0.936 0.302c0.336 0 0.664-0.106 0.936-0.302s0.476-0.474 0.582-0.793l1.093-3.282c0.079-0.236 0.211-0.45 0.387-0.626s0.39-0.308 0.626-0.387l3.282-1.093c0.319-0.106 0.596-0.31 0.793-0.582s0.302-0.6 0.302-0.936c0-0.336-0.106-0.664-0.302-0.936s-0.474-0.476-0.793-0.582l-3.282-1.093c-0.236-0.079-0.45-0.211-0.626-0.387s-0.308-0.39-0.387-0.626l-1.091-3.282h-0.002zM22.318 21.894c-0.106-0.319-0.31-0.596-0.582-0.793s-0.6-0.302-0.936-0.302c-0.336 0-0.664 0.106-0.936 0.302s-0.476 0.474-0.582 0.793l-0.294 0.882c-0.078 0.236-0.211 0.45-0.386 0.626s-0.39 0.308-0.625 0.387l-0.882 0.293c-0.319 0.106-0.596 0.31-0.793 0.582s-0.303 0.6-0.303 0.936c0 0.336 0.106 0.664 0.303 0.936s0.474 0.476 0.793 0.582l0.882 0.293c0.236 0.078 0.45 0.211 0.626 0.387s0.308 0.39 0.387 0.626l0.293 0.882c0.106 0.319 0.31 0.596 0.582 0.793s0.6 0.302 0.936 0.302c0.336 0 0.664-0.106 0.936-0.302s0.476-0.474 0.582-0.793l0.294-0.882c0.078-0.236 0.211-0.45 0.386-0.626s0.39-0.308 0.625-0.387l0.882-0.293c0.319-0.106 0.596-0.31 0.793-0.582s0.302-0.6 0.302-0.936c0-0.336-0.106-0.664-0.302-0.936s-0.474-0.476-0.793-0.582l-0.882-0.294c-0.236-0.078-0.45-0.211-0.626-0.386s-0.308-0.39-0.387-0.625l-0.293-0.882z"></path>
</symbol>
<symbol id="icon-date" viewBox="0 0 32 32">
<path stroke-linejoin="round" stroke-linecap="round" stroke-miterlimit="4" stroke-width="2.4" d="M9 4v3M23 4v3M4 25v-15c0-0.796 0.316-1.559 0.879-2.121s1.326-0.879 2.121-0.879h18c0.796 0 1.559 0.316 2.121 0.879s0.879 1.326 0.879 2.121v15M4 25c0 0.796 0.316 1.559 0.879 2.121s1.326 0.879 2.121 0.879h18c0.796 0 1.559-0.316 2.121-0.879s0.879-1.326 0.879-2.121M4 25v-10c0-0.796 0.316-1.559 0.879-2.121s1.326-0.879 2.121-0.879h18c0.796 0 1.559 0.316 2.121 0.879s0.879 1.326 0.879 2.121v10M16 17h0.011v0.011h-0.011v-0.011zM16 20h0.011v0.011h-0.011v-0.011zM16 23h0.011v0.011h-0.011v-0.011zM13 20h0.011v0.011h-0.011v-0.011zM13 23h0.011v0.011h-0.011v-0.011zM10 20h0.011v0.011h-0.011v-0.011zM10 23h0.011v0.011h-0.011v-0.011zM19 17h0.011v0.011h-0.011v-0.011zM19 20h0.011v0.011h-0.011v-0.011zM19 23h0.011v0.011h-0.011v-0.011zM22 17h0.011v0.011h-0.011v-0.011zM22 20h0.011v0.011h-0.011v-0.011z"></path>
</symbol>
<symbol id="icon-dot" viewBox="0 0 32 32">
<path d="M10.667 2.667h10.667c4.418 0 8 3.582 8 8v10.667c0 4.418-3.582 8-8 8h-10.667c-4.418 0-8-3.582-8-8v-10.667c0-4.418 3.582-8 8-8z"></path>
</symbol>
<symbol id="icon-email" viewBox="0 0 32 32">
<path d="M4.639 6.667c-0.825 0-1.616 0.328-2.2 0.911s-0.911 1.375-0.911 2.2v1.806l13.13 6.566c0.27 0.135 0.568 0.205 0.87 0.205s0.6-0.070 0.87-0.205l13.13-6.564v-1.808c0-0.825-0.328-1.616-0.911-2.2s-1.375-0.911-2.2-0.911h-21.778z"></path>
<path d="M29.528 14.194l-12.087 6.043c-0.594 0.297-1.249 0.452-1.913 0.452s-1.319-0.155-1.913-0.452l-12.087-6.043v8.028c0 0.825 0.328 1.616 0.911 2.2s1.375 0.911 2.2 0.911h21.778c0.825 0 1.616-0.328 2.2-0.911s0.911-1.375 0.911-2.2v-8.028z"></path>
</symbol>
<symbol id="icon-map" viewBox="0 0 32 32">
<path d="M15.416 31.87l-0.011-0.006-0.034-0.015-0.117-0.055c-0.628-0.312-1.241-0.654-1.837-1.024-1.538-0.954-2.972-2.068-4.278-3.322-3.119-3.004-6.315-7.702-6.315-14.274 0-1.73 0.341-3.443 1.003-5.042s1.633-3.051 2.856-4.274c1.223-1.223 2.676-2.194 4.274-2.856s3.312-1.003 5.042-1.003 3.443 0.341 5.042 1.003c1.598 0.662 3.051 1.633 4.274 2.856s2.194 2.676 2.856 4.274c0.662 1.598 1.003 3.312 1.003 5.042 0 6.574-3.196 11.27-6.313 14.274-1.56 1.504-3.113 2.599-4.28 3.322-0.585 0.363-1.075 0.634-1.425 0.815-0.174 0.093-0.35 0.18-0.529 0.264l-0.034 0.015-0.011 0.006-0.004 0.002c-0.373 0.162-0.58 0.124-0.58 0.124s-0.207 0.038-0.578-0.124l-0.006-0.002zM16 17.41c1.123 0 2.2-0.446 2.994-1.24s1.24-1.871 1.24-2.994-0.446-2.2-1.24-2.994c-0.794-0.794-1.871-1.24-2.994-1.24s-2.2 0.446-2.994 1.24c-0.794 0.794-1.24 1.871-1.24 2.994s0.446 2.2 1.24 2.994c0.794 0.794 1.871 1.24 2.994 1.24z"></path>
</symbol>
<symbol id="icon-figma" viewBox="0 0 32 32">
<path d="M20.565 12.422h-5.438v-10.644h5.438c2.935 0 5.322 2.387 5.322 5.322s-2.387 5.323-5.322 5.323zM16.871 10.679h3.694c1.973 0 3.578-1.606 3.578-3.578s-1.606-3.578-3.578-3.578h-3.694v7.156zM16.871 12.422h-5.436c-2.934 0-5.321-2.387-5.321-5.322s2.387-5.323 5.321-5.323h5.438v10.644h-0.001zM11.435 3.521c-1.973 0-3.578 1.606-3.578 3.578s1.605 3.579 3.578 3.579h3.694v-7.157h-3.694zM16.871 21.322h-5.436c-2.934 0-5.321-2.387-5.321-5.322s2.387-5.322 5.321-5.322h5.438v10.643h-0.001zM11.435 12.422c-1.973 0-3.578 1.606-3.578 3.578s1.606 3.578 3.578 3.578h3.694v-7.156h-3.694zM11.463 30.222c-2.95 0-5.351-2.387-5.351-5.322s2.387-5.321 5.321-5.321h5.438v5.263c0 2.966-2.426 5.38-5.408 5.38zM11.435 21.322c-0.949 0.001-1.858 0.379-2.529 1.049s-1.048 1.58-1.049 2.529c0 1.973 1.618 3.578 3.608 3.578 2.021 0 3.666-1.631 3.666-3.636v-3.52h-3.695zM20.565 21.322h-0.116c-2.935 0-5.322-2.387-5.322-5.322s2.387-5.322 5.322-5.322h0.116c2.935 0 5.322 2.387 5.322 5.322s-2.387 5.322-5.322 5.322zM20.45 12.422c-1.973 0-3.578 1.606-3.578 3.578s1.606 3.578 3.578 3.578h0.116c1.973 0 3.578-1.606 3.578-3.578s-1.606-3.578-3.578-3.578h-0.116z"></path>
</symbol>
<symbol id="icon-github" viewBox="0 0 32 32">
<path d="M16 2.13c-7.858 0-14.222 6.368-14.222 14.222 0 6.285 4.075 11.615 9.724 13.493 0.711 0.134 0.972-0.306 0.972-0.684 0-0.338-0.012-1.233-0.018-2.418-3.956 0.858-4.79-1.908-4.79-1.908-0.647-1.642-1.582-2.080-1.582-2.080-1.288-0.882 0.1-0.864 0.1-0.864 1.428 0.1 2.178 1.465 2.178 1.465 1.268 2.175 3.329 1.547 4.142 1.183 0.128-0.92 0.494-1.547 0.901-1.902-3.159-0.356-6.478-1.579-6.478-7.028 0-1.553 0.551-2.821 1.464-3.816-0.16-0.359-0.64-1.805 0.124-3.764 0 0 1.191-0.382 3.911 1.458 1.138-0.316 2.347-0.473 3.556-0.48 1.209 0.007 2.418 0.164 3.556 0.48 2.702-1.839 3.893-1.458 3.893-1.458 0.764 1.959 0.284 3.405 0.142 3.764 0.907 0.996 1.458 2.264 1.458 3.816 0 5.464-3.324 6.667-6.489 7.016 0.498 0.427 0.96 1.299 0.96 2.631 0 1.903-0.018 3.432-0.018 3.895 0 0.373 0.249 0.818 0.978 0.676 5.69-1.866 9.761-7.199 9.761-13.474 0-7.854-6.368-14.222-14.222-14.222z"></path>
</symbol>
<symbol id="icon-linkedin" viewBox="0 0 32 32">
<path d="M26.011 26.017h-4.212v-6.6c0-1.574-0.032-3.599-2.195-3.599-2.196 0-2.532 1.713-2.532 3.483v6.716h-4.212v-13.573h4.046v1.85h0.055c0.565-1.067 1.94-2.193 3.994-2.193 4.268 0 5.057 2.809 5.057 6.465v7.45h-0.001zM8.103 10.587c-1.356 0-2.445-1.098-2.445-2.447 0-1.349 1.090-2.445 2.445-2.445 1.351 0 2.446 1.096 2.446 2.445 0 1.35-1.096 2.447-2.446 2.447zM10.215 26.017h-4.224v-13.573h4.224v13.573zM28.119 1.778h-24.242c-1.16 0-2.099 0.917-2.099 2.049v24.346c0 1.133 0.939 2.049 2.099 2.049h24.238c1.159 0 2.107-0.916 2.107-2.049v-24.346c0-1.132-0.948-2.049-2.107-2.049h0.004z"></path>
</symbol>
<symbol id="icon-planet" viewBox="0 0 32 32">
<path d="M16 28.8c2.837-0 5.594-0.943 7.838-2.679s3.847-4.17 4.558-6.916M16 28.8c-2.837-0-5.594-0.943-7.838-2.679s-3.847-4.17-4.558-6.916M16 28.8c3.534 0 6.4-5.732 6.4-12.8s-2.866-12.8-6.4-12.8M16 28.8c-3.534 0-6.4-5.732-6.4-12.8s2.866-12.8 6.4-12.8M16 3.2c2.27-0.001 4.5 0.602 6.46 1.747s3.58 2.791 4.694 4.769M16 3.2c-2.27-0.001-4.5 0.602-6.46 1.747s-3.58 2.791-4.694 4.769M27.154 9.717c-3.097 2.682-7.058 4.156-11.155 4.15-4.264 0-8.164-1.564-11.155-4.15M27.154 9.717c1.082 1.917 1.649 4.082 1.645 6.283 0 1.107-0.141 2.18-0.404 3.204M28.396 19.204c-3.793 2.103-8.059 3.203-12.396 3.196-4.497 0-8.723-1.159-12.396-3.196M3.604 19.204c-0.269-1.047-0.405-2.123-0.404-3.204 0-2.283 0.597-4.427 1.646-6.283"></path>
</symbol>
</defs>
</svg>
